<?xml version="1.0" encoding="UTF-8"?>
<svg version="1.1" viewBox="0 0 1552 1272" width="1280" height="1280" xmlns="http://www.w3.org/2000/svg">
<path transform="translate(758,383)" d="m0 0h33l12 4 9 6 7 9 3 8 1 5v8l-3 11-6 10-7 6-11 4h-15l-10-5-12-8-10-7-9-4-11-1-6 3-3 4-2 6-1 29v212h33l-8-14-5-14-2-9v-16l4-15 7-13 9-10 7-6 11-5 15-3 28-1h38l19 1v18l-1 1-51 1 12 9 7 6 11 14 6 13 2 8v15l-4 13-4 8h69v47l-2 1h-95l3 8 6 10 6 14 6 18 3 15v27l-4 26-6 18-8 17-6 9-14 18-11 11-19 14-15 8-15 6-3 7-10 33-7 28-1 5h23l23-3 12-4 16-8 11-9 9-11 8-14 6-16 4-18 1-9 1-2h3l3 13 2 13v20l-3 19-6 16-7 13-8 10-10 10-14 9-14 6-16 4-13 2-13 1h-55l-40-2-33-1h-63l-16 1-15 5-10 8-5 5h-3l1-5 8-16 12-22 8-12 8-7 14-3h46l2-10 10-36 7-28-1-4-3-3-7-4-12-11-18-18-8-12-6-10-8-17-7-24-1-14-1-5v-18l5-25 7-21 3-6 2-1h55l-6 7-4 5-8 18-4 15v33l2 8 6 18 5 9 11 14 11 9 8 6 16 8 11 4 17 3h17l9-2 9-1 18-7 13-8 10-9 7-6 8-10 8-16 5-17 1-8v-26l-4-15-6-15-7-10-7-9-11-9-3-7h-114v-48l19-1 3-3-1-4-8-6-10-9-6-9-2-6-1-11 3-14 3-12 1-17-2-27-4-12-10-16-4-6-7-9-5-9 1-1h6l7 8 10 13 8 16 3 9 3 14 1 17v11l8-6 5-2 1-34 2-29 2-10 2-19 2-9 3-14 6-21 6-16 11-21 9-11 10-8 15-9 18-6zm38 214-13 3-9 5-7 6-5 9-3 10v21l4 15 6 12 5 6h52l4-4 3-8 2-10v-18l-3-14-8-16-9-12-5-5zm-138 2-8 7-5 11-1 4v27l4 8 4 5 8 4 3-1v-65zm-6 353-2 7-8 31-7 24v5l10 2 10 1 53 3h10l4-13 10-38 6-20-21 3-11 1h-18l-21-3-12-3z" fill="#010101"/>
<path transform="translate(598,544)" d="m0 0h2l1 138 5 1 18 1v47l-2 1h-98v-48l23-1 1-105 8-5 16-11 12-8z"/>
<path transform="translate(786,316)" d="m0 0h17l10 4 10 7 4 3h3l5-5 8-6 8-3h18l8 4 4 5 3 7v9l-3 7-7 8-6 4-6 2-8 1-9-2-12-6-10-8-4 2-10 9-8 4h-11l-9-4-8-7-4-9v-7l4-9 5-6zm0 5-6 3-5 7v9l7 8 10 5 3 1h10l8-4 6-6-1-4-12-11-11-7zm60 1-6 3-9 8 2 4 9 8 11 6 3 1h12l7-4 4-6-1-8-5-6-10-5-3-1z" fill="#040404"/>
<path transform="translate(607,425)" d="m0 0 6 1 3 4v5l-3 3h-7l-8-2-4 8-4 5-6 11 5 26 3 10h5l8-8 3-4h2l-1 5-15 15-4 2-5-1-4-4-6-21-1-8h-2l-2 4-6 10-7 10-2 7-10 2-7 1-6-5 1-6 5-3 9 3h5l6-9 8-14 5-7-4-16-4-12-2-3-3-1-11-1-2-1v-2l17-3h8l4 5 5 13 2 8h2l2-4 6-11 8-8z" fill="#060606"/>
<path transform="translate(509,933)" d="m0 0h2v2h-2z"/>
<path transform="translate(361,608)" d="m0 0"/>
</svg>
